<?xml version="1.0" encoding="utf-8"?>
<!-- Generator: Adobe Illustrator 16.2.0, SVG Export Plug-In . SVG Version: 6.00 Build 0)  -->
<!DOCTYPE svg PUBLIC "-//W3C//DTD SVG 1.1//EN" "http://www.w3.org/Graphics/SVG/1.1/DTD/svg11.dtd">
<svg version="1.1" id="Layer_1" xmlns="http://www.w3.org/2000/svg" xmlns:xlink="http://www.w3.org/1999/xlink" x="0px" y="0px"
	 width="31px" height="36px" viewBox="0 0 31 36" enable-background="new 0 0 31 36" xml:space="preserve">
<path opacity="0.5" d="M11.961,22h7.451c5.246,0,9.5-4.253,9.5-9.5S24.658,3,19.412,3h-7.451H8.34H6.961v14h-4v5h4v3h-4v5h4v4h5v-4
	h15v-5h-15V22z M11.961,8h7.451V7.97c2.502,0,4.529,2.028,4.529,4.53s-2.027,4.53-4.529,4.53V17h-7.451V8z"/>
<path fill="#FFFFFF" d="M11,21h7.451c5.246,0,9.5-4.253,9.5-9.5S23.697,2,18.451,2H11H7.379H6v14H2v5h4v3H2v5h4v4h5v-4h15v-5H11V21z
	 M11,7h7.451V6.97c2.501,0,4.529,2.028,4.529,4.53s-2.028,4.53-4.529,4.53V16H11V7z"/>
</svg>
